<svg xmlns="http://www.w3.org/2000/svg" viewBox="0 0 400 300" width="406" height="306" class="illustration styles_illustrationTablet__1DWOa"><g id="_157_data_hosting_outline" data-name="#157_data_hosting_outline"><rect x="146.26" y="88.05" width="117.26" height="105.04" fill="#093f68"></rect><path d="M263.52,194.09H146.26a1,1,0,0,1-1-1v-105a1,1,0,0,1,1-1H263.52a1,1,0,0,1,1,1v105A1,1,0,0,1,263.52,194.09Zm-116.26-2H262.52v-103H147.26Z" fill="#093f68"></path><rect x="141.75" y="147.72" width="126.28" height="26.9" rx="5.04" fill="#68e1fd"></rect><path d="M263,175.62H146.79a6,6,0,0,1-6-6V152.75a6,6,0,0,1,6-6H263a6,6,0,0,1,6,6v16.83A6,6,0,0,1,263,175.62Zm-116.2-26.9a4,4,0,0,0-4,4v16.83a4,4,0,0,0,4,4H263a4,4,0,0,0,4-4V152.75a4,4,0,0,0-4-4Z" fill="#093f68"></path><circle cx="249.98" cy="161.17" r="4.83" fill="#f56132"></circle><path d="M250,167a5.84,5.84,0,1,1,5.83-5.83A5.84,5.84,0,0,1,250,167Zm0-9.67a3.84,3.84,0,1,0,3.83,3.84A3.84,3.84,0,0,0,250,157.33Z" fill="#093f68"></path><rect x="141.75" y="118.47" width="126.28" height="26.9" rx="5.04" fill="#68e1fd"></rect><path d="M263,146.37H146.79a6,6,0,0,1-6-6V123.51a6,6,0,0,1,6-6H263a6,6,0,0,1,6,6v16.83A6,6,0,0,1,263,146.37Zm-116.2-26.9a4,4,0,0,0-4,4v16.83a4,4,0,0,0,4,4H263a4,4,0,0,0,4-4V123.51a4,4,0,0,0-4-4Z" fill="#093f68"></path><circle cx="249.98" cy="131.92" r="4.83" fill="#ffbc0e"></circle><path d="M250,137.76a5.84,5.84,0,1,1,5.83-5.84A5.85,5.85,0,0,1,250,137.76Zm0-9.67a3.84,3.84,0,1,0,3.83,3.83A3.84,3.84,0,0,0,250,128.09Z" fill="#093f68"></path><rect x="141.75" y="89.22" width="126.28" height="26.9" rx="5.04" fill="#68e1fd"></rect><path d="M263,117.12H146.79a6,6,0,0,1-6-6V94.26a6,6,0,0,1,6-6H263a6,6,0,0,1,6,6v16.83A6,6,0,0,1,263,117.12Zm-116.2-26.9a4,4,0,0,0-4,4v16.83a4,4,0,0,0,4,4H263a4,4,0,0,0,4-4V94.26a4,4,0,0,0-4-4Z" fill="#093f68"></path><circle cx="249.98" cy="102.67" r="4.83" fill="#f56132"></circle><path d="M250,108.51a5.84,5.84,0,1,1,5.83-5.84A5.85,5.85,0,0,1,250,108.51Zm0-9.67a3.84,3.84,0,1,0,3.83,3.83A3.84,3.84,0,0,0,250,98.84Z" fill="#093f68"></path><rect x="141.75" y="59.97" width="126.28" height="26.9" rx="5.04" fill="#68e1fd"></rect><path d="M263,87.88H146.79a6,6,0,0,1-6-6V65a6,6,0,0,1,6-6H263a6,6,0,0,1,6,6V81.84A6,6,0,0,1,263,87.88ZM146.79,61a4,4,0,0,0-4,4V81.84a4,4,0,0,0,4,4H263a4,4,0,0,0,4-4V65a4,4,0,0,0-4-4Z" fill="#093f68"></path><circle cx="249.98" cy="73.43" r="4.83" fill="#ffbc0e"></circle><path d="M250,79.26a5.84,5.84,0,1,1,5.83-5.83A5.84,5.84,0,0,1,250,79.26Zm0-9.67a3.84,3.84,0,1,0,3.83,3.84A3.84,3.84,0,0,0,250,69.59Z" fill="#093f68"></path><rect x="153.08" y="157.35" width="60.82" height="7.63" rx="2.12" fill="#093f68"></rect><path d="M211.78,166H155.2a3.12,3.12,0,0,1-3.12-3.11v-3.4a3.12,3.12,0,0,1,3.12-3.12h56.58a3.12,3.12,0,0,1,3.12,3.12v3.4A3.12,3.12,0,0,1,211.78,166Zm-56.58-7.63a1.12,1.12,0,0,0-1.12,1.12v3.4A1.12,1.12,0,0,0,155.2,164h56.58a1.12,1.12,0,0,0,1.12-1.11v-3.4a1.12,1.12,0,0,0-1.12-1.12Z" fill="#093f68"></path><rect x="153.08" y="128.11" width="60.82" height="7.63" rx="2.12" fill="#093f68"></rect><path d="M211.78,136.74H155.2a3.12,3.12,0,0,1-3.12-3.12v-3.4a3.12,3.12,0,0,1,3.12-3.11h56.58a3.12,3.12,0,0,1,3.12,3.11v3.4A3.12,3.12,0,0,1,211.78,136.74Zm-56.58-7.63a1.12,1.12,0,0,0-1.12,1.11v3.4a1.12,1.12,0,0,0,1.12,1.12h56.58a1.12,1.12,0,0,0,1.12-1.12v-3.4a1.12,1.12,0,0,0-1.12-1.11Z" fill="#093f68"></path><rect x="153.08" y="98.86" width="60.82" height="7.63" rx="2.12" fill="#093f68"></rect><path d="M211.78,107.49H155.2a3.12,3.12,0,0,1-3.12-3.12V101a3.12,3.12,0,0,1,3.12-3.12h56.58A3.12,3.12,0,0,1,214.9,101v3.39A3.12,3.12,0,0,1,211.78,107.49ZM155.2,99.86a1.12,1.12,0,0,0-1.12,1.12v3.39a1.12,1.12,0,0,0,1.12,1.12h56.58a1.12,1.12,0,0,0,1.12-1.12V101a1.12,1.12,0,0,0-1.12-1.12Z" fill="#093f68"></path><rect x="153.08" y="69.61" width="60.82" height="7.63" rx="2.12" fill="#093f68"></rect><path d="M211.78,78.24H155.2a3.12,3.12,0,0,1-3.12-3.12V71.73a3.12,3.12,0,0,1,3.12-3.12h56.58a3.12,3.12,0,0,1,3.12,3.12v3.39A3.12,3.12,0,0,1,211.78,78.24ZM155.2,70.61a1.12,1.12,0,0,0-1.12,1.12v3.39a1.12,1.12,0,0,0,1.12,1.12h56.58a1.12,1.12,0,0,0,1.12-1.12V71.73a1.12,1.12,0,0,0-1.12-1.12Z" fill="#093f68"></path><path d="M125.87,211.76s15.35-31,27.36-38.8c4.13-2.69,65.11-5.12,70.08-.16s4.14,12.3-8.28,14.79a120,120,0,0,1-21.24,2.48s26.21,2.21,33.11,0,43.59-21.18,46.63-18.69,8.94,10.26-1.82,17S239.87,210.83,233,212.77s-59.09,20.37-59.09,20.37Z" fill="#ffc9b0"></path><path d="M173.88,234.14a1,1,0,0,1-.4-.09l-48-21.38a1,1,0,0,1-.49-1.35c.63-1.28,15.61-31.33,27.7-39.19,2.79-1.82,23.11-2.88,35.25-3.12s32.84-.16,36.08,3.09c2.68,2.67,3.71,5.86,2.83,8.76-1.12,3.7-5.24,6.43-11.61,7.71-2.77.55-5.36,1-7.73,1.32,7.41.28,15.73.31,19.09-.77,2.26-.72,7.92-3.35,14.48-6.39,21.57-10,30.94-13.89,33.09-12.13,2.33,1.91,5,5.55,4.72,9.51-.22,3.43-2.45,6.5-6.64,9.13-3.41,2.13-7.87,5.18-12.59,8.41-10.6,7.23-21.55,14.72-26.41,16.08-6.79,1.9-58.5,20.17-59,20.35A1,1,0,0,1,173.88,234.14Zm-46.64-22.86,46.69,20.79c5.08-1.8,52.15-18.41,58.77-20.27,4.54-1.27,15.85-9,25.82-15.81,4.74-3.23,9.21-6.29,12.65-8.45,3.62-2.26,5.54-4.81,5.71-7.56.21-3.2-2-6.22-4-7.83-2.27-.92-20.95,7.75-31,12.4-6.62,3.07-12.34,5.71-14.71,6.47-7,2.25-32.42.14-33.5,0a1,1,0,0,1,.09-2,120.44,120.44,0,0,0,21.05-2.46c5.61-1.13,9.19-3.37,10.09-6.33.65-2.17-.2-4.63-2.33-6.77-4.26-4.26-64.61-2.45-68.83.29C143.29,180.62,129.9,206.08,127.24,211.28Z" fill="#093f68"></path><polygon points="183.32 238.03 186.37 230.91 124 206.15 104.1 238.03 183.32 238.03" fill="#fff"></polygon><path d="M183.32,239H104.1a1,1,0,0,1-.87-.52,1,1,0,0,1,0-1l19.89-31.88a1,1,0,0,1,1.22-.4L186.74,230a1,1,0,0,1,.55.54,1.05,1.05,0,0,1,0,.78l-3,7.12A1,1,0,0,1,183.32,239Zm-77.41-2h76.75l2.38-5.57-60.63-24.08Z" fill="#093f68"></path><path d="M103.05,120.54a1,1,0,0,1-1-1V114a1,1,0,0,1,2,0v5.51A1,1,0,0,1,103.05,120.54Z" fill="#dfeaef"></path><path d="M103.05,131.54a1,1,0,0,1-1-1V125a1,1,0,0,1,2,0v5.5A1,1,0,0,1,103.05,131.54Z" fill="#dfeaef"></path><path d="M111.3,123.29h-5.5a1,1,0,0,1,0-2h5.5a1,1,0,0,1,0,2Z" fill="#dfeaef"></path><path d="M100.29,123.29h-5.5a1,1,0,0,1,0-2h5.5a1,1,0,0,1,0,2Z" fill="#dfeaef"></path><path d="M290.62,135a1,1,0,0,1-1-1v-5.5a1,1,0,0,1,2,0V134A1,1,0,0,1,290.62,135Z" fill="#dfeaef"></path><path d="M290.62,146a1,1,0,0,1-1-1v-5.5a1,1,0,0,1,2,0V145A1,1,0,0,1,290.62,146Z" fill="#dfeaef"></path><path d="M298.88,137.76h-5.5a1,1,0,0,1,0-2h5.5a1,1,0,0,1,0,2Z" fill="#dfeaef"></path><path d="M287.87,137.76h-5.5a1,1,0,0,1,0-2h5.5a1,1,0,0,1,0,2Z" fill="#dfeaef"></path><path d="M300,106.74a1,1,0,0,1-1-1V92.6a1,1,0,1,1,2,0v13.14A1,1,0,0,1,300,106.74Z" fill="#dfeaef"></path><path d="M306.52,100.17H293.38a1,1,0,0,1,0-2h13.14a1,1,0,0,1,0,2Z" fill="#dfeaef"></path><path d="M123.31,79.56a1,1,0,0,1-1-1V68.29a1,1,0,0,1,2,0V78.56A1,1,0,0,1,123.31,79.56Z" fill="#dfeaef"></path><path d="M128.45,74.43H118.18a1,1,0,0,1,0-2h10.27a1,1,0,0,1,0,2Z" fill="#dfeaef"></path><path d="M128.45,159a1,1,0,0,1-1-1V147.72a1,1,0,0,1,2,0V158A1,1,0,0,1,128.45,159Z" fill="#dfeaef"></path><path d="M133.58,153.85H123.31a1,1,0,1,1,0-2h10.27a1,1,0,0,1,0,2Z" fill="#dfeaef"></path></g></svg>