<svg width="32" height="32" viewBox="0 0 32 32" fill="none" xmlns="http://www.w3.org/2000/svg">
<path d="M28.5339 14.7671L16.4902 7.87094C15.9109 7.53909 15.1743 7.74032 14.8434 8.31841C14.512 8.89691 14.7127 9.63417 15.291 9.96532L27.3348 16.8615C27.5236 16.9699 27.73 17.0212 27.9332 17.0212C28.3516 17.0212 28.7585 16.8032 28.9815 16.4139C29.3129 15.8355 29.1122 15.0982 28.5339 14.7671Z" fill="white"/>
<path d="M3.24593 16.8638L15.2901 23.7598C15.4789 23.868 15.6853 23.9194 15.8886 23.9194C16.3069 23.9194 16.7139 23.7013 16.9368 23.3122C17.2682 22.7336 17.0675 21.9963 16.4892 21.6651L4.44501 14.7691C3.86713 14.438 3.1296 14.6383 2.79828 15.2168C2.46735 15.7953 2.66757 16.5325 3.24593 16.8638Z" fill="white"/>
<path d="M28.5329 21.6679L16.4892 14.772L6.27456 8.92302L15.8894 3.41771L27.3338 9.97023C27.9126 10.3016 28.6496 10.1009 28.9805 9.52267C29.3119 8.94427 29.1112 8.207 28.5329 7.87585L16.4892 0.979853C16.1176 0.767088 15.6612 0.76722 15.2901 0.979722L3.24593 7.87563C2.87037 8.09085 2.63867 8.49032 2.63867 8.92302C2.63867 9.35568 2.87037 9.75524 3.24593 9.97023L15.2901 16.8664L25.5047 22.7152L15.8894 28.2203L4.44501 21.6678C3.86713 21.3368 3.1296 21.5367 2.79828 22.1155C2.46735 22.6939 2.66757 23.4311 3.24593 23.7625L15.2901 30.6584C15.4759 30.7646 15.6827 30.818 15.8894 30.818C16.0966 30.818 16.3034 30.7646 16.4892 30.6584L28.5329 23.7623C28.9084 23.5473 29.1401 23.1478 29.1401 22.7152C29.1401 22.2825 28.9084 21.8829 28.5329 21.6679Z" fill="white"/>
</svg>
